<svg xmlns="http://www.w3.org/2000/svg" version="1.1" xmlns:xlink="http://www.w3.org/1999/xlink" xmlns:svgjs="http://svgjs.com/svgjs" width="20" height="20" x="0" y="0" viewBox="0 0 64 64" style="enable-background:new 0 0 512 512" xml:space="preserve" class=""><g><path d="M31.02 38.92a3.005 3.005 0 0 1-.19 3.59l-3.63 4.36c-1.432 1.567-.186 3.784.3 5.46a1.005 1.005 0 0 1-1.49 1.15C6.15 40.81 3.71 29.15 4.03 23.34a14.854 14.854 0 0 1 23.62-11.41 4.142 4.142 0 0 1 1.52 4.64l-4.01 11.41a3.045 3.045 0 0 0 .34 2.67zM35.89 54.79a1.01 1.01 0 0 1-1.47-.55l-1.04-3.23a2.975 2.975 0 0 1 .55-2.85l4.38-5.26a3.004 3.004 0 0 0 .19-3.59l-6.35-9.51a3 3 0 0 1-.33-2.65l3.01-8.58a3.01 3.01 0 0 0-.17-2.37 2.965 2.965 0 0 1 .84-3.67c19.587-13.878 43.268 17.072.39 42.26z" fill="#eb4511" data-original="#000000" class=""></path></g></svg>