<svg xmlns="http://www.w3.org/2000/svg" width="69" height="69" viewBox="0 0 69 69" fill="none"> <path d="M49.9588 0H19.0414C8.54196 0 0 8.54236 0 19.0418V49.9592C0 60.459 8.54196 69.0009 19.0414 69.0009H49.9588C60.459 69.0009 69.0009 60.4586 69.0009 49.9592V19.0418C69.0013 8.54236 60.459 0 49.9588 0ZM62.8792 49.9592C62.8792 57.0832 57.0832 62.8788 49.9592 62.8788H19.0414C11.9177 62.8792 6.1221 57.0832 6.1221 49.9592V19.0418C6.1221 11.9181 11.9177 6.1221 19.0414 6.1221H49.9588C57.0828 6.1221 62.8788 11.9181 62.8788 19.0418V49.9592H62.8792Z" fill="#EB4511"></path> <path d="M34.4998 16.72C24.6959 16.72 16.72 24.6958 16.72 34.4996C16.72 44.303 24.6959 52.2784 34.4998 52.2784C44.3037 52.2784 52.2796 44.303 52.2796 34.4996C52.2796 24.6958 44.3037 16.72 34.4998 16.72ZM34.4998 46.156C28.072 46.156 22.8421 40.9269 22.8421 34.4992C22.8421 28.0711 28.0716 22.8416 34.4998 22.8416C40.928 22.8416 46.1575 28.0711 46.1575 34.4992C46.1575 40.9269 40.9276 46.156 34.4998 46.156Z" fill="#EB4511"></path> <path d="M53.0225 11.53C51.843 11.53 50.6843 12.0074 49.8513 12.8439C49.0142 13.6763 48.533 14.8352 48.533 16.0185C48.533 17.1981 49.0146 18.3566 49.8513 19.1931C50.6839 20.0255 51.843 20.507 53.0225 20.507C54.2061 20.507 55.3612 20.0255 56.1978 19.1931C57.0345 18.3566 57.5121 17.1977 57.5121 16.0185C57.5121 14.8352 57.0345 13.6763 56.1978 12.8439C55.3652 12.0074 54.2061 11.53 53.0225 11.53Z" fill="#EB4511"></path> </svg> 